<!-- Icon: Lucide "clapperboard" (ISC) — https://lucide.dev/icons/clapperboard -->
<svg xmlns="http://www.w3.org/2000/svg" viewBox="0 0 512 512">
  <defs>
    <linearGradient id="acc" x1="0" y1="0" x2="1" y2="1">
      <stop offset="0" stop-color="#ff3d6e"/>
      <stop offset="1" stop-color="#ff8a5c"/>
    </linearGradient>
    <linearGradient id="bg" x1="0" y1="0" x2="0" y2="1">
      <stop offset="0" stop-color="#1a1428"/>
      <stop offset="1" stop-color="#0c0a10"/>
    </linearGradient>
  </defs>
  <rect width="512" height="512" rx="108" fill="url(#bg)"/>
  <circle cx="256" cy="256" r="200" fill="url(#acc)" opacity="0.08"/>
  <g transform="translate(256 262) scale(11.5) translate(-12 -12)" fill="none" stroke-linecap="round" stroke-linejoin="round">
    <path d="M20.2 6 3 11l-.9-2.4c-.3-1.1.3-2.2 1.3-2.5l13.5-4c1.1-.3 2.2.3 2.5 1.3Z" fill="url(#acc)" stroke="url(#acc)" stroke-width="1.6"/>
    <path d="m6.2 5.3 3.1 3.9" stroke="#0c0a10" stroke-width="1.4" opacity="0.45"/>
    <path d="m12.4 3.4 3.1 4" stroke="#0c0a10" stroke-width="1.4" opacity="0.45"/>
    <path d="M3 11h18v8a2 2 0 0 1-2 2H5a2 2 0 0 1-2-2Z" fill="#ece8f2" stroke="#ece8f2" stroke-width="1.6"/>
  </g>
</svg>
